<svg width="60" height="60" viewBox="0 0 60 60" fill="none" xmlns="http://www.w3.org/2000/svg">
<g id="Twitter">
<path id="twitter" d="M30 0C46.5685 0 60 13.4315 60 30C60 46.5685 46.5685 60 30 60C13.4315 60 0 46.5685 0 30C0 13.4315 13.4315 0 30 0ZM36.8652 18.1992C35.795 17.9027 34.1586 17.9443 33.1934 18.2832C30.5704 19.2366 28.9127 21.6943 29.1016 24.3848L29.1641 25.4219L28.1152 25.2949C24.2963 24.8077 20.9598 23.1559 18.127 20.3809L16.7422 19.0039L16.3848 20.0195C15.6294 22.2862 16.1119 24.681 17.6855 26.291C18.5249 27.1808 18.3366 27.307 16.8887 26.7773C16.3858 26.6081 15.9452 26.4819 15.9023 26.5449C15.7555 26.6932 16.2595 28.6221 16.6582 29.3848C17.2039 30.4438 18.3164 31.4815 19.5332 32.0957L20.5605 32.582L19.3438 32.6035C18.1687 32.6035 18.1261 32.6255 18.252 33.0703C18.6716 34.4472 20.3294 35.9092 22.1758 36.5449L23.4785 36.9902L22.3438 37.668C20.6652 38.6422 18.6929 39.192 16.7207 39.2344C15.7778 39.2555 15.0023 39.3408 15 39.4043C15 39.6161 17.5609 40.8035 19.0508 41.2695C23.5203 42.6462 28.8296 42.0526 32.8164 39.7012C35.6491 38.0275 38.4808 34.7004 39.8027 31.4805C40.5161 29.7644 41.2305 26.629 41.2305 25.125C41.2305 24.1513 41.294 24.0242 42.4688 22.8594C43.1607 22.182 43.8109 21.441 43.9375 21.2285C44.1473 20.8261 44.1264 20.8255 43.0566 21.1855C41.273 21.8211 41.021 21.7365 41.9023 20.7832C42.5529 20.1053 43.3281 18.8758 43.3281 18.5156C43.3264 18.4532 43.0139 18.5599 42.6582 18.75C42.2805 18.9619 41.4401 19.2781 40.8105 19.4688L39.6777 19.8301L38.6484 19.1309C38.0819 18.7496 37.2848 18.3263 36.8652 18.1992Z" fill="white"/>
</g>
</svg>
